#!OML:ASF F:\VICON\USERDATA\INSTALL\rory3\rory3.ASF
:FULLY-SPECIFIED
:DEGREES
3008
root 5.01575 17.8102 -9.25384 4.38991 -40.247 -0.0314773
lowerback 4.8051 3.86719 3.24596
upperback 0.260977 5.36569 2.147
thorax -2.32645 2.64274 0.0412775
lowerneck -20.3193 -6.02977 -8.50951
upperneck 19.5877 -7.72087 8.08637
head 10.2738 -3.27953 3.1079
rclavicle -1.74533e-013 -1.90833e-014
rhumerus 28.2876 14.8195 -81.3078
rradius 87.8798
rwrist -63.0918
rhand -18.1035 3.04424
rfingers 7.12502
rthumb 8.17044 -26.7778
lclavicle -1.74533e-013 -1.90833e-014
lhumerus 18.7416 2.67706 72.271
lradius 92.7045
lwrist 71.7373
lhand -12.6538 21.5858
lfingers 7.12502
lthumb 13.4269 411.133
rfemur -10.2881 -9.15753 24.3392
rtibia 29.6499
rfoot -24.7017 -8.01237
rtoes 6.34952
lfemur -23.814 -2.11489 -15.5305
ltibia 19.8663
lfoot -10.3509 12.2225
ltoes -8.39027
3009
root 5.02008 17.8106 -9.28311 4.42033 -40.1295 -0.110654
lowerback 4.81332 3.67663 3.33922
upperback 0.295682 5.11702 2.23072
thorax -2.29983 2.51846 0.0916397
lowerneck -20.1001 -5.8851 -8.61583
upperneck 19.3023 -7.47484 8.06469
head 10.1115 -3.18451 3.15766
rclavicle 3.07122e-014 -2.8625e-014
rhumerus 27.9855 15.073 -81.0119
rradius 89.9491
rwrist -62.9851
rhand -17.5804 4.2467
rfingers 7.12502
rthumb 8.67523 -25.555
lclavicle 3.07122e-014 -2.8625e-014
lhumerus 17.9339 2.94306 71.921
lradius 94.81
lwrist 70.86
lhand -12.4567 21.3995
lfingers 7.12502
lthumb 13.6169 410.934
rfemur -10.4084 -9.17075 24.4991
rtibia 29.7479
rfoot -24.7718 -8.12597
rtoes 6.5966
lfemur -23.7613 -2.0732 -15.4342
ltibia 19.689
lfoot -10.4803 12.3427
ltoes -8.82549
3010
root 5.02437 17.8068 -9.31126 4.45877 -40.0483 -0.170388
lowerback 4.89004 3.52103 3.2738
upperback 0.272717 4.9149 2.4214
thorax -2.39288 2.4173 0.328698
lowerneck -19.8311 -5.79801 -8.88887
upperneck 19.0614 -7.23873 7.92634
head 9.9591 -3.11963 3.1919
rclavicle -5.28767e-014 -1.98785e-014
rhumerus 27.4313 15.4282 -80.4926
rradius 91.9197
rwrist -62.6237
rhand -16.5625 4.42167
rfingers 7.12502
rthumb 9.65744 -25.3369
lclavicle -5.28767e-014 -1.98785e-014
lhumerus 16.9792 3.16748 71.6558
lradius 96.7869
lwrist 70.0199
lhand -11.7873 21.1063
lfingers 7.12502
lthumb 14.262 410.597
rfemur -10.5673 -9.22376 24.6375
rtibia 29.8619
rfoot -24.7375 -8.19613
rtoes 6.69651
lfemur -23.7413 -2.26358 -15.2774
ltibia 19.5004
lfoot -10.6758 12.7002
ltoes -8.79798
3011
root 5.02711 17.8029 -9.33326 4.43648 -40.0284 -0.107121
lowerback 4.99369 3.47063 3.07313
upperback 0.175568 4.85012 2.58075
thorax -2.58274 2.3849 0.595576
lowerneck -19.82 -5.7405 -9.22104
upperneck 19.3231 -7.10945 8.05821
head 10.0565 -3.06963 3.31701
rclavicle 6.70898e-014 7.95139e-015
rhumerus 26.589 15.5562 -79.9512
rradius 93.9455
rwrist -62.1735
rhand -15.4552 4.26895
rfingers 7.12502
rthumb 10.7257 -25.4372
lclavicle 6.70898e-014 7.95139e-015
lhumerus 15.8723 3.09074 71.5038
lradius 98.8445
lwrist 69.2086
lhand -11.3356 20.8791
lfingers 7.12502
lthumb 14.6971 410.338
rfemur -10.7245 -9.27423 24.6437
rtibia 29.9823
rfoot -24.6943 -8.21376
rtoes 6.57822
lfemur -23.6913 -2.48644 -15.237
ltibia 19.314
lfoot -10.8383 13.1589
ltoes -8.95907
3012
root 5.02834 17.8008 -9.3511 4.31299 -40.0026 0.0104371
lowerback 5.07508 3.42004 2.92449
upperback 0.150784 4.78146 2.6574
thorax -2.67327 2.35171 0.754323
lowerneck -19.3899 -5.77778 -9.21321
upperneck 18.9048 -7.08912 7.71295
head 9.81284 -3.10976 3.19733
rclavicle -2.98177e-016 3.33958e-014
rhumerus 25.7846 15.5969 -79.4332
rradius 96.0034
rwrist -61.6621
rhand -14.7093 5.02645
rfingers 7.12502
rthumb 11.4451 -24.6412
lclavicle -2.98177e-016 3.33958e-014
lhumerus 14.7008 2.8772 71.2833
lradius 101.011
lwrist 68.6197
lhand -11.3727 20.6201
lfingers 7.12502
lthumb 14.6615 410.082
rfemur -10.7883 -9.30088 24.5807
rtibia 30.1057
rfoot -24.7489 -8.19223
rtoes 6.62743
lfemur -23.5524 -2.56535 -15.3029
ltibia 19.1209
lfoot -10.9263 13.5374
ltoes -9.39419
3013
root 5.02888 17.7991 -9.36859 4.23366 -40.0043 0.0358599
lowerback 5.05343 3.35738 2.96061
upperback 0.242346 4.69484 2.67298
thorax -2.56549 2.30974 0.761136
lowerneck -19.1515 -5.74999 -9.20109
upperneck 18.4696 -7.00979 7.56438
head 9.60238 -3.09463 3.15451
rclavicle -1.82882e-014 -2.22639e-014
rhumerus 25.0836 15.6241 -78.9408
rradius 98.0413
rwrist -60.9213
rhand -14.0872 5.86837
rfingers 7.12502
rthumb 12.045 -23.765
lclavicle -1.82882e-014 -2.22639e-014
lhumerus 13.6315 2.70029 70.9746
lradius 103.039
lwrist 68.413
lhand -11.1223 20.2004
lfingers 7.12502
lthumb 14.9027 409.644
rfemur -10.8207 -9.23934 24.6054
rtibia 30.2113
rfoot -24.8399 -8.29333
rtoes 6.59063
lfemur -23.4198 -2.51415 -15.3054
ltibia 18.935
lfoot -10.971 13.8363
ltoes -9.73174
3014
root 5.02918 17.797 -9.38859 4.18619 -40.0196 0.0563777
lowerback 5.0694 3.3351 2.96935
upperback 0.270954 4.66501 2.6724
thorax -2.54432 2.29508 0.757786
lowerneck -18.9056 -5.74413 -9.19724
upperneck 18.1621 -6.9897 7.50012
head 9.44581 -3.09812 3.13554
rclavicle 4.39314e-014 -6.36111e-015
rhumerus 24.2058 15.5826 -78.5701
rradius 100.08
rwrist -60.0778
rhand -13.6668 6.23107
rfingers 7.12502
rthumb 12.4503 -23.3781
lclavicle 4.39314e-014 -6.36111e-015
lhumerus 12.4945 2.38996 70.696
lradius 104.956
lwrist 68.2821
lhand -10.6189 19.8259
lfingers 7.12502
lthumb 15.3876 409.233
rfemur -10.8706 -9.13794 24.6486
rtibia 30.2932
rfoot -24.944 -8.36896
rtoes 6.70727
lfemur -23.3602 -2.21993 -15.3482
ltibia 18.7958
lfoot -11.0361 13.9534
ltoes -10.5138
3015
root 5.02954 17.7981 -9.40671 4.0977 -40.0414 0.172079
lowerback 5.07525 3.37255 2.8923
upperback 0.316674 4.708 2.62658
thorax -2.50242 2.31805 0.751695
lowerneck -18.8669 -5.80208 -8.99232
upperneck 17.9869 -7.07841 7.31415
head 9.37043 -3.1461 3.02294
rclavicle -5.46658e-015 -3.18055e-014
rhumerus 23.2618 15.384 -78.2147
rradius 102.112
rwrist -59.4502
rhand -13.2385 6.55533
rfingers 7.12502
rthumb 12.8632 -23.0283
lclavicle -5.46658e-015 -3.18055e-014
lhumerus 11.4416 1.83738 70.4324
lradius 106.806
lwrist 67.878
lhand -10.1584 19.486
lfingers 7.12502
lthumb 15.8311 408.859
rfemur -10.9346 -9.03051 24.6059
rtibia 30.3536
rfoot -24.9977 -8.41981
rtoes 6.91159
lfemur -23.3127 -1.95932 -15.4708
ltibia 18.6918
lfoot -11.1625 14.0873
ltoes -11.0396
3016
root 5.02965 17.7994 -9.42004 3.94125 -40.0726 0.300997
lowerback 5.11913 3.42554 2.83789
upperback 0.391908 4.77298 2.56393
thorax -2.44798 2.35178 0.713082
lowerneck -19.2493 -5.78826 -8.73056
upperneck 18.2561 -7.0858 7.17182
head 9.51772 -3.13723 2.92476
rclavicle -7.02704e-014 -2.22639e-014
rhumerus 22.2494 15.1417 -77.8541
rradius 104.082
rwrist -58.9392
rhand -12.6904 6.82591
rfingers 7.12502
rthumb 13.3917 -22.7237
lclavicle -7.02704e-014 -2.22639e-014
lhumerus 10.3124 1.07287 70.1199
lradius 108.772
lwrist 67.5587
lhand -10.0972 19.2673
lfingers 7.12502
lthumb 15.89 408.635
rfemur -10.9304 -8.96496 24.5245
rtibia 30.4148
rfoot -24.9968 -8.52113
rtoes 6.67541
lfemur -23.1745 -1.98263 -15.5464
ltibia 18.5951
lfoot -11.3266 14.3908
ltoes -10.7934
3017
root 5.03027 17.7993 -9.43025 3.85994 -40.0706 0.354051
lowerback 5.08548 3.36766 2.84754
upperback 0.456849 4.69204 2.57479
thorax -2.36276 2.3126 0.728974
lowerneck -19.3291 -5.73465 -8.66287
upperneck 18.2606 -7.00139 7.0743
head 9.51965 -3.1021 2.89096
rclavicle 3.84648e-014 -2.22639e-014
rhumerus 21.1508 15.1907 -77.5308
rradius 106.021
rwrist -58.3995
rhand -12.2203 6.87145
rfingers 7.12502
rthumb 13.8447 -22.6478
lclavicle 3.84648e-014 -2.22639e-014
lhumerus 8.92701 0.456404 69.8016
lradius 110.741
lwrist 67.4439
lhand -10.5147 19.0857
lfingers 7.12502
lthumb 15.4879 408.485
rfemur -10.9377 -9.01247 24.4943
rtibia 30.4611
rfoot -24.9523 -8.49109
rtoes 6.57847
lfemur -23.105 -2.2332 -15.5017
ltibia 18.55
lfoot -11.4793 14.9073
ltoes -10.4711
